<svg width="148" height="78" viewBox="0 0 148 78" fill="none" xmlns="http://www.w3.org/2000/svg">
<g clip-path="url(#clip0_7_3941)">
<path d="M3.7789 7.51538H13.5726C21.3059 7.51538 26.0357 11.4985 26.0357 16.1538C26.0357 20.36 23.6441 23.6138 19.5264 25.1277C25.3687 26.1938 28.818 30.2308 28.818 35.0554C28.818 39.8246 24.4774 44.5338 16.3549 44.5338H3.7789V7.51538ZM8.28581 9.2523V24.8477H15.1309C18.1345 24.8477 21.1396 23.1646 21.1396 16.9385C21.1396 10.8815 17.8018 9.25384 13.5726 9.25384L8.28581 9.2523ZM8.28581 26.6369V42.9631H16.3549C20.5825 42.9631 23.9219 41.1169 23.9219 34.8308C23.9219 28.3815 20.5825 26.6415 16.3549 26.6415L8.28581 26.6369Z" fill="white"/>
<path d="M45.3987 44.5338V28.38L32.0444 7.51538H37.2198L49.46 26.4185L60.7006 7.51538H62.648L49.9057 28.1V44.5338H45.3987Z" fill="white"/>
<path d="M95.7486 7.51538H97.2519V31.3615C97.2519 40.6723 91.6308 45.1031 84.0639 45.1031C75.5506 45.1031 70.0425 40.8969 70.0425 30.52V7.51538H74.5495V30.5123C74.5495 39.8231 78.9449 43.1277 84.7324 43.1277C90.184 43.1277 95.7486 39.9862 95.7486 31.8538V7.51538ZM90.9685 0V2.35538H77.843V0H90.9685Z" fill="white"/>
<path d="M121.793 9.25232V44.5339H117.23V9.25232H104.878V7.51385H134.09V9.25232H121.793Z" fill="white"/>
<path d="M146.886 44.5338H142.324V7.51538H146.886V44.5338Z" fill="white"/>
<path d="M12.8873 70.5046H3.93305L1.09124 77.6662H0L8.82304 55.5123H9.58615L18.7053 77.6662H15.8284L12.8873 70.5046ZM8.32702 59.38L4.32834 69.5062H12.4905L8.32702 59.38Z" fill="white"/>
<path d="M24.4499 66.7739C24.4499 74.9016 27.4566 77.0339 31.5209 77.0339C34.8251 77.0339 37.6334 75.1016 38.1294 71.4708H38.7567C38.195 75.6354 35.254 78 31.3881 78C25.1764 78 21.5746 73.3031 21.5746 66.9416C21.5746 60.4462 25.1093 55.3492 31.0584 55.3492C34.99 55.3492 37.9966 57.7154 38.5918 61.8785H37.931C37.4029 58.2477 34.5275 56.3154 31.1897 56.3154C27.687 56.3154 24.4499 58.2477 24.4499 66.7739Z" fill="white"/>
<path d="M54.1867 70.5046H45.2309L42.3891 77.6662H41.2993L50.1209 55.5123H50.884L60.0046 77.6662H57.1353L54.1867 70.5046ZM49.6279 59.38L45.6292 69.5062H53.7914L49.6279 59.38Z" fill="white"/>
<path d="M63.5744 55.683H70.8438C77.1226 55.683 80.8237 60.8123 80.8237 66.7077C80.8237 72.6707 77.1226 77.6661 70.8438 77.6661H63.5744V55.683ZM66.2835 56.7154V76.6369H70.8438C74.9753 76.6369 77.9147 74.3046 77.9147 66.6769C77.9147 59.2169 74.9753 56.7184 70.8438 56.7184L66.2835 56.7154Z" fill="white"/>
<path d="M86.1777 55.683H98.2058V56.7154H88.8806V66.0754H97.5373V67.0738H88.8806V76.6369H98.6285V77.6692H86.1777V55.683Z" fill="white"/>
<path d="M114.132 77.8338L105.771 57.9477V77.6661H104.813V55.683H107.72L115.284 73.9692L122.289 55.683H125.099V77.6661H122.392V57.9738L114.726 77.82L114.132 77.8338Z" fill="white"/>
<path d="M137.756 77.6661V68.0738L129.82 55.683H132.892L140.161 66.9138L146.837 55.683H147.994L140.427 67.9077V77.6661H137.756Z" fill="white"/>
</g>
<defs>
<clipPath id="clip0_7_3941">
<rect width="148" height="78" fill="white"/>
</clipPath>
</defs>
</svg>
