<svg
        viewBox="0 0 521 89"
        fill="none"
        xmlns="http://www.w3.org/2000/svg"
      >
        <path
          d="M504.594 67.8915C501.738 67.8915 498.989 67.5292 496.346 66.8045C493.746 66.0372 491.678 65.1208 490.144 64.0551L493.213 57.9807C494.747 58.9611 496.58 59.7711 498.712 60.4105C500.843 61.0499 502.974 61.3696 505.106 61.3696C507.621 61.3696 509.432 61.0286 510.541 60.3465C511.692 59.6645 512.267 58.748 512.267 57.5971C512.267 56.6593 511.883 55.9559 511.116 55.487C510.349 54.9755 509.347 54.5919 508.111 54.3361C506.875 54.0803 505.489 53.8459 503.955 53.6328C502.463 53.4196 500.95 53.1426 499.415 52.8015C497.923 52.4179 496.559 51.8851 495.323 51.203C494.087 50.4784 493.085 49.5193 492.318 48.3257C491.55 47.1321 491.167 45.5549 491.167 43.5941C491.167 41.4201 491.785 39.5445 493.021 37.9673C494.257 36.3475 495.983 35.1113 498.2 34.2588C500.459 33.3636 503.124 32.916 506.193 32.916C508.495 32.916 510.818 33.1718 513.162 33.6833C515.507 34.1948 517.446 34.9195 518.981 35.8573L515.912 41.9316C514.292 40.9512 512.651 40.2905 510.988 39.9495C509.368 39.5658 507.749 39.374 506.129 39.374C503.699 39.374 501.887 39.7363 500.694 40.461C499.543 41.1857 498.967 42.1021 498.967 43.2105C498.967 44.2335 499.351 45.0008 500.118 45.5123C500.886 46.0238 501.887 46.4288 503.124 46.7272C504.36 47.0256 505.724 47.2813 507.216 47.4945C508.75 47.665 510.264 47.9421 511.755 48.3257C513.247 48.7093 514.612 49.2422 515.848 49.9242C517.126 50.5636 518.15 51.4801 518.917 52.6737C519.684 53.8672 520.068 55.4231 520.068 57.3413C520.068 59.4727 519.428 61.3269 518.15 62.9042C516.913 64.4814 515.144 65.7175 512.842 66.6127C510.541 67.4652 507.791 67.8915 504.594 67.8915Z"
          fill="#CED0DF"
        />
        <path
          d="M472.973 67.8915C470.202 67.8915 467.666 67.2521 465.364 65.9733C463.105 64.6945 461.293 62.7763 459.929 60.2186C458.607 57.6184 457.947 54.3361 457.947 50.3718C457.947 46.3649 458.586 43.0826 459.865 40.5249C461.186 37.9673 462.977 36.0704 465.236 34.8342C467.495 33.5554 470.074 32.916 472.973 32.916C476.34 32.916 479.303 33.6407 481.861 35.09C484.461 36.5393 486.507 38.5641 487.999 41.1644C489.533 43.7646 490.301 46.8337 490.301 50.3718C490.301 53.9098 489.533 57.0003 487.999 59.6432C486.507 62.2434 484.461 64.2682 481.861 65.7175C479.303 67.1669 476.34 67.8915 472.973 67.8915ZM454.046 79.8484V33.2997H461.655V41.3562L461.4 50.4357L462.039 59.5153V79.8484H454.046ZM472.078 61.0499C473.996 61.0499 475.701 60.6236 477.193 59.7711C478.727 58.9185 479.942 57.6823 480.837 56.0625C481.733 54.4427 482.18 52.5458 482.18 50.3718C482.18 48.1552 481.733 46.2583 480.837 44.6811C479.942 43.0613 478.727 41.8251 477.193 40.9725C475.701 40.12 473.996 39.6937 472.078 39.6937C470.159 39.6937 468.433 40.12 466.898 40.9725C465.364 41.8251 464.149 43.0613 463.254 44.6811C462.359 46.2583 461.911 48.1552 461.911 50.3718C461.911 52.5458 462.359 54.4427 463.254 56.0625C464.149 57.6823 465.364 58.9185 466.898 59.7711C468.433 60.6236 470.159 61.0499 472.078 61.0499Z"
          fill="#CED0DF"
        />
        <path
          d="M432.017 67.8915C428.521 67.8915 425.409 67.1455 422.681 65.6536C419.953 64.119 417.8 62.0303 416.223 59.3874C414.646 56.7445 413.857 53.7393 413.857 50.3718C413.857 46.9616 414.646 43.9564 416.223 41.3562C417.8 38.7133 419.953 36.6459 422.681 35.1539C425.409 33.662 428.521 32.916 432.017 32.916C435.555 32.916 438.688 33.662 441.416 35.1539C444.187 36.6459 446.339 38.692 447.874 41.2922C449.451 43.8925 450.24 46.919 450.24 50.3718C450.24 53.7393 449.451 56.7445 447.874 59.3874C446.339 62.0303 444.187 64.119 441.416 65.6536C438.688 67.1455 435.555 67.8915 432.017 67.8915ZM432.017 61.0499C433.977 61.0499 435.725 60.6236 437.26 59.7711C438.794 58.9185 439.988 57.6823 440.84 56.0625C441.736 54.4427 442.183 52.5458 442.183 50.3718C442.183 48.1552 441.736 46.2583 440.84 44.6811C439.988 43.0613 438.794 41.8251 437.26 40.9725C435.725 40.12 433.999 39.6937 432.08 39.6937C430.12 39.6937 428.372 40.12 426.837 40.9725C425.345 41.8251 424.152 43.0613 423.257 44.6811C422.362 46.2583 421.914 48.1552 421.914 50.3718C421.914 52.5458 422.362 54.4427 423.257 56.0625C424.152 57.6823 425.345 58.9185 426.837 59.7711C428.372 60.6236 430.098 61.0499 432.017 61.0499Z"
          fill="#CED0DF"
        />
        <path
          d="M394.642 67.8915C391.146 67.8915 388.034 67.1455 385.306 65.6536C382.578 64.119 380.425 62.0303 378.848 59.3874C377.271 56.7445 376.482 53.7393 376.482 50.3718C376.482 46.9616 377.271 43.9564 378.848 41.3562C380.425 38.7133 382.578 36.6459 385.306 35.1539C388.034 33.662 391.146 32.916 394.642 32.916C398.18 32.916 401.313 33.662 404.041 35.1539C406.812 36.6459 408.964 38.692 410.499 41.2922C412.076 43.8925 412.865 46.919 412.865 50.3718C412.865 53.7393 412.076 56.7445 410.499 59.3874C408.964 62.0303 406.812 64.119 404.041 65.6536C401.313 67.1455 398.18 67.8915 394.642 67.8915ZM394.642 61.0499C396.602 61.0499 398.35 60.6236 399.885 59.7711C401.419 58.9185 402.613 57.6823 403.465 56.0625C404.361 54.4427 404.808 52.5458 404.808 50.3718C404.808 48.1552 404.361 46.2583 403.465 44.6811C402.613 43.0613 401.419 41.8251 399.885 40.9725C398.35 40.12 396.624 39.6937 394.705 39.6937C392.745 39.6937 390.997 40.12 389.462 40.9725C387.97 41.8251 386.777 43.0613 385.882 44.6811C384.987 46.2583 384.539 48.1552 384.539 50.3718C384.539 52.5458 384.987 54.4427 385.882 56.0625C386.777 57.6823 387.97 58.9185 389.462 59.7711C390.997 60.6236 392.723 61.0499 394.642 61.0499Z"
          fill="#CED0DF"
        />
        <path
          d="M345.935 67.444V22.6855H354.247V60.4105H377.649V67.444H345.935Z"
          fill="#CED0DF"
        />
        <path
          d="M325.277 67.8915C321.484 67.8915 318.159 67.1455 315.303 65.6536C312.489 64.119 310.294 62.0303 308.717 59.3874C307.182 56.7445 306.415 53.7393 306.415 50.3718C306.415 46.9616 307.161 43.9564 308.653 41.3562C310.188 38.7133 312.276 36.6459 314.919 35.1539C317.605 33.662 320.652 32.916 324.063 32.916C327.388 32.916 330.35 33.6407 332.95 35.09C335.551 36.5393 337.597 38.5854 339.089 41.2283C340.581 43.8712 341.327 46.9829 341.327 50.5636C341.327 50.9046 341.305 51.2883 341.263 51.7145C341.263 52.1408 341.241 52.5458 341.199 52.9294H312.745V47.6224H336.979L333.846 49.2848C333.888 47.324 333.483 45.5976 332.631 44.1056C331.778 42.6137 330.606 41.4414 329.114 40.5889C327.665 39.7363 325.981 39.3101 324.063 39.3101C322.102 39.3101 320.375 39.7363 318.883 40.5889C317.434 41.4414 316.283 42.635 315.431 44.1696C314.621 45.6615 314.216 47.4305 314.216 49.4766V50.7554C314.216 52.8015 314.685 54.6132 315.622 56.1904C316.56 57.7676 317.882 58.9825 319.587 59.835C321.292 60.6875 323.253 61.1138 325.469 61.1138C327.388 61.1138 329.114 60.8154 330.649 60.2186C332.183 59.6219 333.547 58.6841 334.741 57.4053L339.025 62.3287C337.49 64.119 335.551 65.5044 333.206 66.4848C330.904 67.4226 328.261 67.8915 325.277 67.8915Z"
          fill="#CED0DF"
        />
        <path
          d="M288.604 32.916C291.333 32.916 293.762 33.4489 295.894 34.5145C298.068 35.5802 299.773 37.2213 301.009 39.438C302.245 41.6119 302.863 44.4253 302.863 47.8781V67.4439H294.871V48.9012C294.871 45.8746 294.146 43.6154 292.697 42.1235C291.29 40.6315 289.308 39.8855 286.75 39.8855C284.875 39.8855 283.212 40.2692 281.763 41.0365C280.313 41.8038 279.184 42.9547 278.374 44.4893C277.607 45.9812 277.223 47.8781 277.223 50.18V67.4439H269.23V33.2997H276.839V42.5071L275.497 39.6937C276.69 37.5197 278.417 35.8573 280.676 34.7064C282.978 33.5128 285.621 32.916 288.604 32.916Z"
          fill="#CED0DF"
        />
        <path
          d="M247.201 67.8915C243.706 67.8915 240.594 67.1455 237.866 65.6536C235.138 64.119 232.985 62.0303 231.408 59.3874C229.831 56.7445 229.042 53.7393 229.042 50.3718C229.042 46.9616 229.831 43.9564 231.408 41.3562C232.985 38.7133 235.138 36.6459 237.866 35.1539C240.594 33.662 243.706 32.916 247.201 32.916C250.739 32.916 253.872 33.662 256.6 35.1539C259.371 36.6459 261.524 38.692 263.058 41.2922C264.636 43.8925 265.424 46.919 265.424 50.3718C265.424 53.7393 264.636 56.7445 263.058 59.3874C261.524 62.0303 259.371 64.119 256.6 65.6536C253.872 67.1455 250.739 67.8915 247.201 67.8915ZM247.201 61.0499C249.162 61.0499 250.91 60.6236 252.444 59.7711C253.979 58.9185 255.172 57.6823 256.025 56.0625C256.92 54.4427 257.368 52.5458 257.368 50.3718C257.368 48.1552 256.92 46.2583 256.025 44.6811C255.172 43.0613 253.979 41.8251 252.444 40.9725C250.91 40.12 249.183 39.6937 247.265 39.6937C245.304 39.6937 243.557 40.12 242.022 40.9725C240.53 41.8251 239.336 43.0613 238.441 44.6811C237.546 46.2583 237.098 48.1552 237.098 50.3718C237.098 52.5458 237.546 54.4427 238.441 56.0625C239.336 57.6823 240.53 58.9185 242.022 59.7711C243.557 60.6236 245.283 61.0499 247.201 61.0499Z"
          fill="#CED0DF"
        />
        <path
          d="M211.413 32.916C214.141 32.916 216.549 33.4489 218.638 34.5145C220.769 35.5802 222.432 37.2213 223.625 39.438C224.819 41.6119 225.416 44.4253 225.416 47.8781V67.4439H217.423V48.9012C217.423 45.8746 216.763 43.6154 215.441 42.1235C214.12 40.6315 212.223 39.8855 209.75 39.8855C208.003 39.8855 206.447 40.2692 205.083 41.0365C203.761 41.8038 202.717 42.9334 201.95 44.4253C201.225 45.9173 200.863 47.8142 200.863 50.116V67.4439H192.87V48.9012C192.87 45.8746 192.209 43.6154 190.888 42.1235C189.566 40.6315 187.67 39.8855 185.197 39.8855C183.45 39.8855 181.894 40.2692 180.53 41.0365C179.208 41.8038 178.164 42.9334 177.396 44.4253C176.672 45.9173 176.309 47.8142 176.309 50.116V67.4439H168.317V33.2997H175.926V42.3792L174.583 39.6937C175.734 37.4771 177.396 35.7933 179.57 34.6424C181.787 33.4915 184.302 32.916 187.115 32.916C190.312 32.916 193.083 33.7046 195.428 35.2818C197.815 36.859 199.392 39.2461 200.159 42.4432L197.026 41.3562C198.135 38.7985 199.967 36.7525 202.525 35.2179C205.083 33.6833 208.045 32.916 211.413 32.916Z"
          fill="#CED0DF"
        />
        <path
          d="M147.755 32.916C150.483 32.916 152.913 33.4488 155.045 34.5145C157.219 35.5802 158.924 37.2213 160.16 39.4379C161.396 41.6119 162.014 44.4253 162.014 47.8781V67.4439H154.022V48.9011C154.022 45.8746 153.297 43.6154 151.848 42.1234C150.441 40.6315 148.459 39.8855 145.901 39.8855C144.025 39.8855 142.363 40.2692 140.914 41.0365C139.464 41.8037 138.335 42.9547 137.525 44.4892C136.758 45.9812 136.374 47.8781 136.374 50.18V67.4439H128.381V20H136.374V42.5071L134.648 39.6937C135.841 37.5197 137.567 35.8573 139.827 34.7063C142.129 33.5128 144.771 32.916 147.755 32.916Z"
          fill="#CED0DF"
        />
        <path
          d="M106.648 68.0831C103.152 68.0831 99.806 67.5929 96.6089 66.6125C93.4119 65.5894 90.8756 64.2893 89 62.7121L91.8773 56.2541C93.6677 57.6608 95.8843 58.833 98.5271 59.7708C101.17 60.7086 103.877 61.1775 106.648 61.1775C108.992 61.1775 110.889 60.9218 112.338 60.4102C113.788 59.8987 114.853 59.2167 115.535 58.3642C116.217 57.469 116.558 56.4672 116.558 55.3589C116.558 53.9949 116.068 52.9079 115.088 52.098C114.107 51.2454 112.829 50.5847 111.251 50.1158C109.717 49.6043 107.99 49.1354 106.072 48.7091C104.197 48.2829 102.3 47.7926 100.381 47.2385C98.5058 46.6417 96.7794 45.8957 95.2022 45.0006C93.6677 44.0628 92.4102 42.8266 91.4297 41.292C90.4493 39.7574 89.9591 37.7966 89.9591 35.4095C89.9591 32.9797 90.5985 30.7631 91.8773 28.7597C93.1988 26.7136 95.1809 25.0937 97.8238 23.9002C100.509 22.664 103.898 22.0459 107.99 22.0459C110.676 22.0459 113.34 22.3869 115.983 23.069C118.626 23.751 120.928 24.7314 122.889 26.0102L120.267 32.4682C118.263 31.2747 116.196 30.4008 114.065 29.8467C111.933 29.2499 109.887 28.9515 107.926 28.9515C105.625 28.9515 103.749 29.2286 102.3 29.7827C100.893 30.3369 99.8486 31.0615 99.1666 31.9567C98.5271 32.8519 98.2074 33.8749 98.2074 35.0258C98.2074 36.3899 98.6763 37.4982 99.6141 38.3507C100.595 39.1607 101.852 39.8001 103.387 40.269C104.964 40.7379 106.712 41.2068 108.63 41.6757C110.548 42.1019 112.445 42.5921 114.32 43.1463C116.239 43.7004 117.965 44.4251 119.5 45.3203C121.077 46.2154 122.334 47.4303 123.272 48.9649C124.253 50.4995 124.743 52.439 124.743 54.7835C124.743 57.1706 124.082 59.3872 122.761 61.4333C121.482 63.4368 119.5 65.0566 116.814 66.2928C114.129 67.4863 110.74 68.0831 106.648 68.0831Z"
          fill="#CED0DF"
        />
        <path
          d="M63 23C68.5228 23 73 18.5228 73 13L73 1.06267C73 0.475775 72.5242 1.90168e-06 71.9373 1.89468e-06L57 1.71655e-06C44.2975 1.56507e-06 34 10.2975 34 23Lnan nanL34 23L63 23Z"
          fill="url(#paint0_linear_20_485)"
        />
        <path
          d="M39 37C39 31.4772 43.4772 27 49 27L60.9373 27C61.5242 27 62 27.4758 62 28.0627L62 43C62 55.7026 51.7025 66 39 66Lnan nanL39 66L39 37Z"
          fill="#CED0DF"
        />
        <path
          d="M34 52C34 57.5228 29.5228 62 24 62H12.0627C11.4758 62 11 61.5242 11 60.9373V46C11 33.2975 21.2975 23 34 23Lnan nanL34 23V52Z"
          fill="#CED0DF"
        />
        <path
          d="M10 66C4.47715 66 -1.95703e-07 70.4772 -4.37114e-07 76L-9.58911e-07 87.9373C-9.84565e-07 88.5242 0.475773 89 1.06267 89L16 89C28.7025 89 39 78.7025 39 66Lnan nanL39 66L10 66Z"
          fill="#CED0DF"
        />
        <defs>
          <linearGradient
            id="paint0_linear_20_485"
            x1="53.5"
            y1="30.5"
            x2="53.5"
            y2="-12"
            gradientUnits="userSpaceOnUse"
          >
            <stop stop-color="#8798C9" />
            <stop offset="1" stop-color="#3A4B69" />
          </linearGradient>
        </defs>
      </svg>